<?xml version="1.0" standalone="no"?>
<!DOCTYPE svg PUBLIC "-//W3C//DTD SVG 20010904//EN"
 "http://www.w3.org/TR/2001/REC-SVG-20010904/DTD/svg10.dtd">
<svg version="1.0" xmlns="http://www.w3.org/2000/svg"
 width="1033.000000pt" height="1080.000000pt" viewBox="0 0 1033.000000 1080.000000"
 preserveAspectRatio="xMidYMid meet">

<g transform="translate(0.000000,1080.000000) scale(0.100000,-0.100000)"
fill="#000000" stroke="none">
<path d="M5340 9866 c-170 -82 -300 -196 -321 -281 -32 -129 -70 -260 -79
-269 -5 -5 -11 0 -14 15 -27 133 -28 158 -22 284 4 74 3 135 -1 135 -5 0 -33
-24 -62 -54 -53 -53 -53 -55 -81 -175 -52 -226 -54 -249 -31 -342 26 -104 27
-125 1 -132 -40 -10 -106 -199 -95 -268 6 -36 5 -37 -32 -49 -21 -7 -42 -16
-48 -20 -5 -4 -23 -10 -40 -14 -39 -10 -92 -61 -116 -113 -13 -30 -27 -45 -46
-49 -14 -4 -102 -4 -195 0 l-169 7 -91 -46 c-50 -25 -105 -57 -123 -70 -17
-14 -36 -25 -41 -25 -5 0 -25 -13 -44 -29 -44 -35 -74 -45 -88 -29 -14 17
-116 325 -135 408 -38 160 -42 206 -42 480 0 245 2 287 22 380 43 206 40 261
-8 152 -30 -70 -69 -142 -101 -189 -15 -23 -28 -44 -28 -47 0 -3 -14 -29 -31
-57 -101 -173 -187 -361 -219 -484 -7 -27 -25 -90 -41 -140 -43 -139 -97 -365
-100 -424 -3 -43 10 -67 76 -146 42 -50 135 -187 135 -200 0 -4 9 -18 20 -32
39 -50 36 -56 -110 -173 -51 -41 -100 -82 -109 -91 -42 -43 -234 -189 -254
-194 -12 -3 -94 -9 -182 -14 -127 -6 -169 -12 -205 -28 -25 -12 -81 -36 -125
-53 -196 -80 -329 -156 -394 -224 -19 -19 -48 -38 -65 -42 -17 -3 -62 -24
-101 -46 -38 -23 -99 -57 -135 -76 -36 -20 -83 -49 -105 -64 -22 -16 -76 -52
-120 -82 -44 -29 -97 -72 -119 -96 -38 -43 -38 -43 -32 -107 4 -35 11 -72 15
-81 10 -18 39 -135 48 -187 2 -16 11 -44 19 -62 27 -60 22 -66 -71 -78 -68 -9
-163 -34 -196 -51 -17 -8 -29 -24 -31 -40 -2 -21 -14 -30 -63 -49 -33 -14 -66
-32 -73 -42 -6 -9 -12 -41 -12 -71 0 -48 -4 -58 -32 -87 -18 -18 -43 -44 -56
-57 l-23 -25 31 -84 c17 -46 43 -109 59 -139 32 -64 45 -68 193 -69 79 -1 88
1 99 20 11 21 11 21 42 -8 56 -51 63 -55 102 -47 72 13 115 110 85 190 -9 22
-8 29 4 36 8 5 23 34 32 66 45 156 59 200 77 230 10 17 21 32 23 32 19 0 210
-93 310 -151 47 -27 90 -49 96 -49 6 0 7 16 3 41 l-7 42 38 -7 c115 -21 120
-21 134 13 12 30 141 151 160 151 5 0 12 -17 16 -37 12 -71 36 -158 47 -171 6
-8 10 -29 9 -47 -4 -49 18 -61 81 -48 43 9 57 8 80 -5 32 -19 35 -32 7 -32
-10 0 -24 -10 -31 -21 -9 -18 -7 -25 10 -42 17 -18 34 -22 93 -22 52 -1 81 -6
100 -19 32 -21 58 -15 58 14 0 25 5 25 30 0 42 -42 62 -11 32 50 -12 25 -15
40 -8 40 19 0 85 -67 92 -94 3 -14 9 -27 13 -27 3 -1 29 -2 57 -4 75 -3 146
-59 130 -102 -10 -24 -119 -12 -181 19 -71 36 -108 42 -143 24 -35 -18 -47
-43 -31 -62 15 -19 63 -18 79 1 16 20 45 19 76 -2 l26 -16 -34 -11 c-47 -15
-51 -57 -9 -96 53 -51 138 -46 174 10 6 11 18 20 25 20 22 0 155 -143 197
-212 45 -73 81 -103 138 -111 48 -7 97 -44 137 -102 45 -65 39 -95 -23 -110
-39 -10 -73 15 -82 62 -14 78 -55 120 -70 73 -3 -11 -10 -20 -14 -20 -12 0
-46 40 -93 107 -65 93 -88 107 -174 109 -55 2 -74 -1 -78 -12 -9 -23 10 -58
48 -92 29 -25 35 -37 30 -56 -3 -14 -1 -33 4 -42 7 -12 7 -27 0 -43 -8 -21 -6
-28 8 -36 19 -10 38 -29 117 -110 26 -28 56 -59 67 -69 35 -34 38 -27 -107
-229 -46 -63 -83 -124 -83 -135 0 -25 43 -78 79 -96 14 -8 48 -17 74 -21 l47
-7 -38 -27 c-20 -15 -63 -42 -94 -60 -50 -28 -58 -37 -58 -62 0 -54 73 -184
131 -233 17 -14 43 -26 57 -26 23 -1 34 -12 71 -75 36 -60 52 -77 79 -86 33
-11 140 -8 172 5 10 4 27 -13 55 -56 52 -80 84 -103 143 -103 48 0 81 19 177
98 18 15 37 27 42 27 5 0 19 -20 31 -45 22 -45 45 -58 55 -30 5 12 13 11 52
-6 37 -16 123 -29 221 -32 17 -1 61 35 197 159 122 112 374 370 404 415 9 13
54 62 99 109 81 85 219 247 264 311 13 19 27 36 30 39 36 33 140 161 140 174
0 9 7 16 15 16 8 0 15 6 15 14 0 8 3 16 8 18 4 2 22 22 41 46 24 31 41 72 62
150 28 102 79 340 81 372 2 54 32 118 85 179 108 124 109 125 188 91 26 -11
51 -18 56 -15 5 4 35 1 66 -5 32 -7 90 -16 128 -20 39 -4 81 -11 95 -15 14 -4
80 -9 147 -12 127 -6 157 -1 378 53 101 25 279 80 369 115 27 10 59 19 71 19
12 0 24 3 28 6 10 10 236 88 397 136 36 11 74 23 85 28 11 5 38 14 60 20 22 6
49 15 60 20 11 5 90 32 175 60 125 41 288 102 309 117 2 2 1 6 -2 9 -3 4 -23
-2 -44 -12 -21 -10 -44 -19 -51 -20 -6 -1 -31 -11 -55 -22 -23 -11 -60 -26
-82 -32 -22 -7 -47 -15 -55 -18 -8 -3 -24 -7 -34 -9 -11 -2 -25 -8 -33 -14 -7
-6 -13 -9 -13 -6 0 5 -58 -12 -100 -30 -8 -3 -24 -8 -35 -10 -10 -2 -22 -8
-26 -15 -4 -6 -11 -8 -16 -5 -5 3 -21 0 -35 -7 -14 -7 -42 -16 -64 -21 -21 -4
-50 -13 -64 -20 -14 -7 -43 -18 -65 -23 -104 -27 -283 -88 -301 -103 -8 -6
-14 -9 -14 -5 0 3 -17 0 -37 -8 -21 -8 -51 -17 -68 -21 -16 -4 -43 -12 -60
-19 -73 -32 -458 -134 -438 -117 4 5 42 18 83 30 148 44 236 74 317 107 45 18
113 45 150 58 170 61 600 276 782 390 22 14 43 26 45 26 8 0 138 82 191 120
28 20 73 50 100 65 28 16 55 34 61 40 6 5 37 28 69 50 51 36 280 203 360 263
109 81 178 135 193 150 10 9 54 48 98 87 43 38 106 95 139 126 82 76 228 206
360 318 125 106 300 282 360 360 79 104 146 182 330 386 42 46 44 47 28 15
-10 -19 -20 -37 -23 -40 -3 -3 -20 -36 -38 -75 -19 -38 -40 -81 -48 -95 -7
-14 -31 -59 -51 -100 -20 -41 -40 -77 -44 -80 -4 -3 -24 -36 -44 -75 -64 -121
-99 -180 -126 -216 -15 -19 -34 -49 -44 -68 -9 -19 -26 -43 -36 -54 -10 -11
-33 -45 -51 -75 -18 -30 -45 -68 -59 -86 -14 -17 -46 -60 -70 -96 -24 -36 -64
-91 -89 -123 -25 -33 -54 -74 -66 -93 -11 -19 -29 -41 -40 -49 -10 -8 -14 -15
-9 -15 6 0 6 -3 -1 -8 -5 -4 -25 -28 -44 -54 -18 -27 -37 -48 -42 -48 -4 0 -8
-6 -8 -12 0 -7 -20 -35 -45 -62 -25 -26 -45 -51 -45 -55 0 -3 -19 -25 -41 -49
-23 -23 -37 -42 -32 -42 15 0 40 22 70 62 15 20 55 71 88 115 32 43 68 87 78
98 11 11 29 34 41 50 12 17 49 66 82 109 59 80 148 207 258 372 33 49 68 98
78 109 9 11 28 39 40 62 13 23 47 81 77 130 74 121 84 139 164 293 159 309
196 384 191 389 -3 3 -24 -15 -47 -41 -67 -74 -130 -147 -158 -183 -57 -74
-256 -296 -283 -315 -14 -10 -58 -17 -136 -21 -184 -10 -435 -45 -615 -85 -38
-8 -105 -22 -149 -30 -43 -7 -103 -21 -135 -30 -31 -8 -94 -24 -141 -35 -100
-22 -181 -48 -194 -60 -6 -5 -19 -9 -31 -9 -12 0 -25 -4 -30 -8 -10 -8 -89
-34 -148 -48 -15 -3 -30 -10 -33 -15 -3 -5 -13 -9 -22 -9 -9 0 -53 -18 -97
-40 -44 -22 -85 -40 -91 -40 -7 0 -38 -14 -70 -30 -39 -21 -103 -76 -203 -175
-80 -79 -159 -154 -176 -166 -16 -12 -62 -52 -102 -88 -149 -137 -199 -179
-238 -201 -22 -12 -44 -26 -50 -30 -13 -11 -81 -49 -130 -74 -49 -24 -146 -28
-192 -6 -18 8 -33 18 -33 22 0 5 -6 8 -13 8 -8 0 -56 22 -108 49 -117 60 -161
83 -223 113 -44 22 -51 30 -64 74 -8 27 -20 66 -28 87 -8 20 -14 46 -14 56 0
21 21 21 187 -5 136 -21 322 -18 460 7 113 20 143 33 143 61 0 21 -169 182
-211 202 -19 9 -54 36 -77 59 l-41 42 -2 90 c-2 89 -2 90 27 107 16 9 36 17
44 17 8 1 21 10 27 20 10 16 9 26 -4 53 -24 48 -362 387 -449 450 -60 43 -73
58 -74 81 0 15 -9 46 -19 70 -11 23 -25 61 -31 85 -6 24 -19 58 -29 75 -9 18
-22 50 -29 72 -11 40 -23 52 -197 199 -45 38 -17 31 47 -11 55 -37 130 -97
244 -195 30 -27 59 -48 65 -48 17 0 6 108 -14 149 -9 19 -17 40 -17 47 0 7 -9
29 -20 49 -11 20 -20 41 -20 48 0 6 -27 66 -61 134 -63 127 -97 166 -155 178
-53 11 -109 27 -141 42 -18 7 -81 17 -140 22 -102 7 -153 21 -153 41 0 13 95
55 166 74 44 12 106 16 227 16 92 0 167 4 167 8 0 11 -111 118 -137 131 -12 6
-33 11 -46 11 -14 0 -40 6 -58 14 -19 7 -55 17 -81 20 -26 4 -50 11 -53 16 -3
4 -28 14 -56 20 -29 7 -64 19 -78 26 -52 27 -102 16 -211 -47 -14 -8 -27 -16
-30 -19 -5 -5 -19 -13 -89 -52 -20 -11 -50 -31 -68 -44 -17 -13 -37 -24 -42
-24 -6 0 -20 -5 -31 -12 -10 -7 -21 -10 -24 -8 -5 5 18 185 30 235 7 31 69
122 137 202 21 25 36 50 34 56 -2 6 -19 16 -38 22 -31 11 -40 9 -99 -19z
m-1978 -344 c-5 -16 -15 -71 -22 -123 -6 -52 -16 -119 -21 -148 -29 -173 -36
-707 -10 -856 5 -27 16 -90 25 -140 9 -49 16 -97 16 -106 0 -23 -136 -133
-155 -126 -8 4 -21 21 -30 39 -20 44 -93 156 -147 226 -80 103 -80 104 -68
179 5 38 14 84 20 103 5 19 30 112 56 205 55 206 70 250 127 385 63 150 105
236 122 250 8 7 15 16 15 21 0 13 72 130 78 125 2 -3 0 -18 -6 -34z m1423
-918 c11 -3 74 6 139 21 149 32 190 34 216 10 16 -14 67 -94 90 -140 21 -42
76 -108 98 -117 35 -14 309 -39 342 -31 14 3 39 15 55 28 17 12 35 24 41 28 7
4 25 -13 45 -44 l33 -52 -31 -26 c-17 -14 -51 -64 -76 -111 -40 -74 -52 -89
-99 -116 -150 -88 -296 -149 -383 -160 l-50 -6 -24 43 c-124 225 -179 299
-222 299 -23 0 -24 4 -2 40 l16 28 -84 91 c-46 50 -100 102 -119 115 -19 13
-50 38 -68 55 -30 28 -32 35 -26 68 10 56 12 57 52 18 20 -20 46 -38 57 -41z
m-11 -133 c4 -5 2 -20 -3 -33 l-9 -23 -11 28 c-6 16 -11 30 -11 33 0 8 29 4
34 -5z m-67 -230 c5 -7 82 20 151 52 78 36 95 28 66 -33 -10 -22 -28 -43 -39
-46 -11 -4 -60 -26 -108 -50 l-88 -43 -10 26 c-14 39 -23 137 -14 170 8 27 8
27 23 -22 9 -27 17 -52 19 -54z m1648 -170 c44 -37 108 -102 142 -143 l62 -75
-237 -11 c-205 -10 -363 -29 -394 -48 -15 -9 -38 17 -69 78 -32 63 -36 88 -15
88 8 0 43 36 79 80 37 45 69 81 74 81 10 2 78 -120 93 -167 23 -71 43 -67 96
21 35 60 36 60 24 120 -6 33 -14 71 -17 85 -6 24 -6 24 38 -8 24 -18 80 -63
124 -101z m-1390 -285 c44 -9 84 -21 89 -26 13 -13 -1 -13 -83 1 -70 12 -121
33 -121 50 0 6 6 6 18 0 9 -5 53 -16 97 -25z m-313 -395 c46 -11 96 -25 112
-30 22 -9 36 -7 73 9 59 26 83 25 142 -5 53 -26 138 -81 145 -94 3 -4 -31 -18
-74 -30 -102 -30 -109 -38 -75 -91 44 -70 42 -88 -15 -148 l-50 -53 -19 44
c-10 24 -33 60 -51 80 -30 35 -33 36 -58 23 -39 -20 -125 -108 -115 -117 4 -4
27 -9 50 -11 l41 -3 -52 -45 c-29 -25 -68 -66 -87 -92 -18 -26 -39 -48 -44
-48 -6 0 -24 21 -41 46 l-30 46 19 57 c10 31 25 63 33 72 32 35 9 57 -36 34
-16 -8 -30 -13 -30 -10 0 14 46 95 86 152 24 34 44 66 44 72 0 14 -101 24
-167 16 -56 -7 -130 -46 -160 -84 -10 -13 -12 -5 -13 45 0 60 1 63 41 99 93
84 179 101 331 66z m-1507 -543 c-4 -68 -9 -126 -11 -129 -10 -17 -112 -16
-169 1 -33 10 -75 21 -92 25 -18 4 -33 11 -33 17 0 21 62 119 83 130 50 27
184 77 206 78 l23 0 -7 -122z m1659 -418 l6 -65 -21 44 c-17 36 -19 48 -10 69
7 13 13 23 15 21 2 -2 6 -33 10 -69z m-611 -284 c43 -18 76 -76 108 -193 12
-43 24 -86 26 -95 7 -23 2 -23 -55 5 -52 27 -186 62 -274 72 -32 4 -58 12 -58
17 0 11 68 196 77 212 8 13 134 0 176 -18z m-98 -261 c51 -9 110 -29 162 -55
l81 -40 7 -53 c3 -28 12 -79 20 -112 27 -117 27 -125 13 -125 -7 0 -41 9 -76
20 -35 11 -75 22 -90 25 -103 19 -168 26 -242 24 l-85 -2 -8 84 c-9 87 -2 141
27 212 16 35 18 37 64 37 26 -1 83 -7 127 -15z m85 -366 c25 -5 81 -21 125
-36 44 -14 86 -28 93 -29 22 -6 12 -40 -19 -63 -16 -12 -94 -61 -172 -108
l-142 -85 -69 5 c-37 2 -72 10 -76 16 -4 7 -8 41 -9 77 -1 35 -6 90 -11 122
-14 85 -13 110 8 115 25 7 220 -3 272 -14z m-202 -374 c-20 -14 -43 -25 -51
-25 -9 0 -14 10 -14 25 0 23 3 25 51 25 l51 0 -37 -25z m-232 -464 c79 -57
144 -143 213 -276 54 -106 81 -280 51 -334 l-12 -24 -24 27 c-14 14 -28 26
-33 26 -4 0 -6 21 -4 48 5 66 -31 152 -73 172 -28 13 -31 21 -42 87 -13 85
-34 131 -66 142 -15 6 -33 33 -53 79 -41 92 -29 106 43 53z"/>
<path d="M5051 8389 c-1 -9 2 -37 5 -63 6 -39 12 -50 36 -62 17 -9 41 -13 56
-10 25 5 29 1 64 -72 41 -86 108 -162 144 -162 27 0 109 34 118 49 4 6 14 11
22 11 8 0 29 10 47 22 36 25 167 149 167 159 0 12 -140 31 -265 36 -88 3 -161
0 -225 -10 -115 -18 -126 -14 -150 64 -10 29 -18 47 -19 38z m287 -134 c2 -11
13 -30 25 -42 18 -21 19 -23 3 -23 -25 0 -58 19 -78 44 -22 27 -22 33 0 39 30
8 47 2 50 -18z m212 6 c0 -15 -54 -63 -87 -77 -22 -10 -39 -11 -55 -5 l-23 10
23 0 c35 1 58 17 72 51 10 24 19 30 41 30 16 0 29 -4 29 -9z"/>
<path d="M9100 6630 c0 -5 -6 -10 -14 -10 -8 0 -39 -13 -70 -30 -31 -16 -57
-29 -59 -29 -1 0 -27 -11 -57 -24 -30 -13 -65 -27 -77 -31 -13 -4 -23 -12 -23
-17 0 -5 -9 -9 -20 -9 -11 0 -20 -4 -20 -10 0 -5 -9 -10 -20 -10 -11 0 -20 -3
-20 -8 0 -4 -15 -13 -32 -21 -34 -13 -49 -20 -150 -65 -32 -14 -58 -23 -58
-21 0 2 -22 -7 -49 -20 -27 -14 -56 -25 -64 -25 -9 0 -19 -4 -22 -10 -3 -5
-17 -10 -31 -10 -13 0 -24 -4 -24 -10 0 -5 1 -10 3 -10 9 1 99 31 127 43 19 9
65 27 101 41 37 14 122 52 190 84 68 33 190 92 272 130 81 39 147 74 147 77 0
3 -7 5 -15 5 -8 0 -15 -4 -15 -10z"/>
</g>
</svg>
