<?xml version="1.0" standalone="no"?>
<!DOCTYPE svg PUBLIC "-//W3C//DTD SVG 20010904//EN"
 "http://www.w3.org/TR/2001/REC-SVG-20010904/DTD/svg10.dtd">
<svg version="1.0" xmlns="http://www.w3.org/2000/svg"
 width="600.000000pt" height="43.000000pt" viewBox="0 0 600.000000 43.000000"
 preserveAspectRatio="xMidYMid meet">

<g transform="translate(0.000000,43.000000) scale(0.100000,-0.100000)"
fill="#000000" stroke="none">
<path d="M5764 410 c-20 -8 -333 -22 -453 -21 -31 0 -64 -5 -76 -13 -13 -9
-68 -16 -150 -20 -72 -4 -180 -12 -242 -18 -104 -9 -114 -9 -140 9 -49 34 -77
41 -170 44 -29 1 -59 -3 -66 -10 -8 -6 -16 -9 -19 -6 -2 2 -17 -15 -32 -40
-27 -41 -52 -62 -64 -50 -3 3 0 5 5 5 6 0 26 18 43 40 37 47 19 56 -26 13 -16
-16 -35 -28 -41 -29 -45 -4 -48 -4 -35 -12 7 -5 -6 -7 -30 -6 -23 1 -52 -2
-63 -6 -12 -4 -129 -11 -261 -14 -224 -5 -768 -23 -1374 -46 -146 -5 -335 -12
-420 -15 -85 -3 -207 -8 -270 -10 -149 -7 -780 -31 -1327 -50 -238 -9 -443
-19 -456 -24 -31 -12 -38 -40 -20 -81 l13 -33 393 6 c215 4 682 14 1037 22
735 18 2509 54 2617 54 40 0 83 -2 95 -5 13 -3 39 -8 58 -11 19 -3 45 -13 57
-20 12 -8 28 -11 34 -7 7 4 9 3 6 -3 -4 -6 6 -16 21 -22 93 -37 196 -30 274
18 27 17 59 31 71 31 18 0 20 2 7 11 -12 9 -11 10 5 4 21 -7 412 -32 625 -40
143 -6 313 -22 351 -35 22 -7 33 -3 60 20 19 16 38 29 42 30 26 1 68 49 83 92
26 80 5 150 -58 188 -16 10 -35 29 -42 41 -13 27 -31 32 -62 19z m-319 -85
c-16 -14 -22 -22 -12 -19 33 12 17 -19 -40 -72 -31 -30 -62 -54 -69 -54 -6 0
-17 -6 -23 -14 -27 -32 -159 -24 -188 12 -19 24 -53 89 -53 102 0 5 5 10 10
10 6 0 10 -5 10 -12 0 -40 83 -65 110 -33 8 9 21 13 36 9 13 -4 30 -2 37 4 6
5 31 13 55 17 38 6 60 25 29 25 -7 0 -20 9 -30 20 -20 23 -11 26 17 5 10 -8
23 -12 29 -8 6 3 7 1 3 -5 -4 -7 -1 -12 6 -12 7 0 19 9 26 20 7 12 16 19 20
16 5 -3 14 -1 22 5 31 19 34 8 5 -16z m135 5 c0 -5 -2 -10 -4 -10 -3 0 -8 5
-11 10 -3 6 -1 10 4 10 6 0 11 -4 11 -10z m294 -57 c12 -4 23 -6 26 -6 13 3 5
-43 -9 -54 -9 -7 -12 -13 -7 -13 11 0 -14 -30 -25 -30 -5 0 -7 17 -4 38 3 27
2 32 -4 17 -5 -11 -10 -41 -10 -67 -1 -33 -5 -48 -14 -48 -10 0 -12 21 -9 93
4 110 10 132 24 100 6 -13 20 -26 32 -30z m-1324 27 c0 -5 -5 -10 -11 -10 -5
0 -7 5 -4 10 3 6 8 10 11 10 2 0 4 -4 4 -10z m327 4 c-3 -3 -12 -4 -19 -1 -8
3 -5 6 6 6 11 1 17 -2 13 -5z m698 -12 c-3 -8 -5 -20 -5 -28 0 -8 -8 -17 -17
-21 -10 -4 -38 -20 -62 -36 l-44 -30 6 33 c4 18 7 46 7 62 0 23 3 28 13 20 8
-7 17 -7 29 2 24 18 80 15 73 -2z m-1065 -2 c0 -5 -10 -10 -22 -10 -19 0 -20
-2 -8 -10 13 -9 12 -12 -4 -25 -40 -30 -50 -7 -14 32 22 24 48 31 48 13z m512
-4 c9 0 15 -3 12 -7 -2 -4 3 -12 10 -18 22 -18 37 -69 23 -75 -7 -2 -5 -5 4
-5 9 -1 19 -8 23 -16 7 -19 7 -19 -40 1 -21 9 -57 18 -79 19 -22 2 -30 1 -18
-2 12 -2 27 -11 33 -19 14 -16 35 -19 25 -4 -10 16 7 12 27 -7 10 -9 18 -21
18 -27 0 -6 -5 -3 -11 7 -6 9 -15 15 -20 12 -5 -4 -7 -11 -4 -16 4 -5 4 -9 1
-9 -9 0 -81 43 -91 55 -5 6 -31 19 -57 29 -50 18 -88 10 -88 -18 0 -8 -7 -16
-15 -20 -11 -4 -15 1 -15 19 0 17 6 25 18 26 16 1 16 2 0 6 -11 3 -18 14 -18
29 0 21 4 24 20 19 13 -4 27 0 38 11 16 17 17 17 20 0 3 -14 9 -16 30 -10 35
10 91 11 122 1 l25 -8 -25 22 c-20 18 -21 21 -5 14 11 -4 28 -8 37 -9z m168 4
c0 -12 -28 -25 -36 -17 -9 9 6 27 22 27 8 0 14 -5 14 -10z m620 -42 c0 -29 -5
-71 -11 -93 -6 -22 -11 -44 -11 -50 -2 -13 -65 -18 -73 -5 -4 6 -28 7 -61 4
-44 -6 -54 -4 -52 7 2 11 -11 14 -58 14 -33 0 -67 5 -75 12 -8 6 -38 15 -67
19 l-52 7 25 19 c13 10 27 27 30 37 3 11 13 22 21 25 13 5 15 0 9 -34 -6 -38
-5 -40 18 -40 13 0 30 7 37 15 6 7 36 28 66 45 43 24 54 35 49 49 -5 16 4 18
100 20 l105 2 0 -53z m-1360 37 c0 -2 -12 -10 -26 -18 -24 -12 -25 -15 -10
-29 9 -9 21 -18 28 -21 16 -5 10 -12 -20 -22 -21 -6 -23 -4 -17 13 5 19 3 20
-31 15 -35 -6 -36 -5 -25 16 7 11 18 21 26 21 8 0 15 4 15 9 0 8 10 12 53 20
4 0 7 -1 7 -4z m164 -11 c14 -14 18 -14 38 0 22 16 58 22 58 10 0 -3 -4 -13
-10 -24 -7 -14 -6 -17 8 -16 11 1 17 -6 17 -19 0 -14 -6 -19 -20 -17 -16 3
-18 1 -8 -9 10 -10 9 -16 -3 -30 -15 -17 -19 -17 -45 -3 -16 8 -29 11 -29 6 0
-5 12 -14 26 -21 21 -9 24 -14 14 -26 -14 -17 -65 -21 -55 -5 3 6 1 10 -6 10
-8 0 -8 4 1 16 12 13 10 14 -13 3 -32 -14 -35 -39 -7 -46 11 -3 20 -10 20 -15
0 -6 -7 -8 -15 -5 -8 4 -17 2 -20 -4 -4 -5 -11 -7 -16 -3 -6 3 -5 12 3 22 11
13 10 14 -16 8 -17 -4 -35 -14 -41 -23 -14 -19 -50 -14 -50 7 0 10 8 14 23 13
13 -2 20 1 17 7 -3 5 0 18 6 29 10 16 17 17 38 10 24 -10 25 -10 7 10 -17 19
-17 20 6 32 13 7 25 13 28 12 3 -1 6 10 6 23 1 13 -2 21 -7 18 -5 -3 -9 -10
-9 -16 0 -14 -31 -37 -51 -38 -9 0 -22 7 -30 16 -10 13 -8 19 15 41 15 14 39
26 52 26 13 0 27 3 30 8 8 13 21 11 38 -7z m-385 -11 c-8 -10 -18 -21 -24 -25
-6 -5 -4 -8 5 -8 13 0 13 -1 0 -10 -13 -9 -13 -10 0 -10 11 0 15 -11 15 -39 0
-35 -2 -40 -29 -45 -15 -3 -57 -6 -92 -6 l-64 0 0 45 0 45 78 1 c42 1 69 3 60
6 -10 3 -15 10 -11 19 5 13 -2 15 -43 9 -27 -4 -52 -8 -55 -9 -4 0 -6 4 -5 9
0 6 33 10 74 11 41 0 77 5 84 12 18 18 22 14 7 -5z m908 -9 c-9 -9 -28 6 -21
18 4 6 10 6 17 -1 6 -6 8 -13 4 -17z m-812 -32 c4 -16 2 -28 -4 -30 -14 -5
-14 -32 -1 -32 21 0 9 -16 -19 -27 -35 -13 -41 -9 -41 29 0 16 -5 28 -12 28
-9 0 -8 4 2 11 11 8 12 12 3 16 -25 9 28 45 54 36 6 -3 14 -16 18 -31z m557
-33 c22 -7 38 -20 42 -32 3 -12 4 -22 3 -23 -7 -7 -107 52 -107 63 0 8 6 12
13 9 6 -2 29 -10 49 -17z m-487 -3 c18 -13 18 -14 -4 -25 -24 -13 -51 -8 -51
9 0 5 7 10 16 10 8 0 12 5 9 10 -9 14 8 12 30 -4z m89 -2 c21 -8 20 -21 -2
-33 -23 -12 -45 1 -36 22 7 18 14 20 38 11z m386 -44 l35 -30 -38 21 c-37 21
-56 39 -40 39 5 0 24 -14 43 -30z m-158 -2 c-7 -7 -12 -8 -12 -2 0 14 12 26
19 19 2 -3 -1 -11 -7 -17z m-274 0 c19 -19 14 -30 -10 -26 -13 2 -24 11 -26
21 -4 20 18 23 36 5z m955 0 c38 3 77 -11 77 -27 0 -5 -16 -3 -36 4 -37 12
-78 9 -69 -5 3 -5 -11 -3 -31 3 -20 6 -31 13 -25 15 6 2 8 8 5 14 -4 7 2 7 17
2 13 -4 41 -7 62 -6z m-998 -28 c16 -18 16 -19 -3 -17 -11 0 -20 6 -19 12 1 5
-6 9 -15 9 -10 -1 -18 4 -18 11 0 18 34 8 55 -15z m380 20 c3 -5 1 -10 -4 -10
-6 0 -11 5 -11 10 0 6 2 10 4 10 3 0 8 -4 11 -10z m-455 -20 c0 -5 -7 -7 -15
-4 -8 4 -15 8 -15 10 0 2 7 4 15 4 8 0 15 -4 15 -10z m370 6 c0 -2 -7 -9 -15
-16 -13 -11 -14 -10 -9 4 5 14 24 23 24 12z m560 -6 c18 -12 2 -12 -25 0 -13
6 -15 9 -5 9 8 0 22 -4 30 -9z m45 -20 c3 -6 -1 -7 -9 -4 -18 7 -21 14 -7 14
6 0 13 -4 16 -10z m-859 -37 c-7 -7 -26 7 -26 19 0 6 6 6 15 -2 9 -7 13 -15
11 -17z m224 17 c0 -5 -8 -10 -17 -10 -15 0 -16 2 -3 10 19 12 20 12 20 0z
m-115 -10 c8 -13 -15 -13 -35 0 -12 8 -11 10 7 10 12 0 25 -4 28 -10z"/>
<path d="M5390 285 c-8 -9 -8 -15 -2 -15 12 0 26 19 19 26 -2 2 -10 -2 -17
-11z"/>
<path d="M4815 241 c-13 -5 -1 -8 37 -8 32 0 55 4 52 8 -6 11 -62 10 -89 0z"/>
<path d="M5550 163 c8 -3 18 -11 22 -17 4 -6 10 -7 15 -3 9 10 -16 27 -37 26
-13 -1 -13 -1 0 -6z"/>
<path d="M4640 205 c-14 -8 -19 -14 -10 -14 8 0 24 6 34 14 25 19 9 19 -24 0z"/>
</g>
</svg>
